<svg width="226" height="36" viewBox="0 0 226 36" fill="none" xmlns="http://www.w3.org/2000/svg">
<path d="M9 8.56C11.0492 8.56 12.84 8.96616 14.3723 9.77846C15.9046 10.5908 17.0862 11.7354 17.9169 13.2123C18.7662 14.6708 19.1908 16.36 19.1908 18.28C19.1908 20.1815 18.7662 21.8708 17.9169 23.3477C17.0862 24.8246 15.8954 25.9692 14.3446 26.7815C12.8123 27.5938 11.0308 28 9 28H1.71692V8.56H9ZM8.69538 23.9015C10.4862 23.9015 11.88 23.4123 12.8769 22.4338C13.8738 21.4554 14.3723 20.0708 14.3723 18.28C14.3723 16.4892 13.8738 15.0954 12.8769 14.0985C11.88 13.1015 10.4862 12.6031 8.69538 12.6031H6.45231V23.9015H8.69538ZM33.8002 28.1938C31.9725 28.1938 30.2925 27.7692 28.7602 26.92C27.2463 26.0708 26.0371 24.8892 25.1325 23.3754C24.2463 21.8431 23.8033 20.1262 23.8033 18.2246C23.8033 16.3231 24.2463 14.6154 25.1325 13.1015C26.0371 11.5877 27.2463 10.4062 28.7602 9.55692C30.2925 8.70769 31.9725 8.28308 33.8002 8.28308C35.6279 8.28308 37.2986 8.70769 38.8125 9.55692C40.3448 10.4062 41.5448 11.5877 42.4125 13.1015C43.2986 14.6154 43.7417 16.3231 43.7417 18.2246C43.7417 20.1262 43.2986 21.8431 42.4125 23.3754C41.5263 24.8892 40.3263 26.0708 38.8125 26.92C37.2986 27.7692 35.6279 28.1938 33.8002 28.1938ZM33.8002 23.8738C35.351 23.8738 36.5879 23.3569 37.511 22.3231C38.4525 21.2892 38.9233 19.9231 38.9233 18.2246C38.9233 16.5077 38.4525 15.1415 37.511 14.1262C36.5879 13.0923 35.351 12.5754 33.8002 12.5754C32.231 12.5754 30.9756 13.0831 30.034 14.0985C29.111 15.1138 28.6494 16.4892 28.6494 18.2246C28.6494 19.9415 29.111 21.3169 30.034 22.3508C30.9756 23.3662 32.231 23.8738 33.8002 23.8738ZM66.5362 28H61.8008L53.8808 16.0092V28H49.1454V8.56H53.8808L61.8008 20.6062V8.56H66.5362V28ZM81.9318 28.1938C80.1041 28.1938 78.4241 27.7692 76.8918 26.92C75.3779 26.0708 74.1687 24.8892 73.2641 23.3754C72.3779 21.8431 71.9349 20.1262 71.9349 18.2246C71.9349 16.3231 72.3779 14.6154 73.2641 13.1015C74.1687 11.5877 75.3779 10.4062 76.8918 9.55692C78.4241 8.70769 80.1041 8.28308 81.9318 8.28308C83.7595 8.28308 85.4303 8.70769 86.9441 9.55692C88.4764 10.4062 89.6764 11.5877 90.5441 13.1015C91.4303 14.6154 91.8733 16.3231 91.8733 18.2246C91.8733 20.1262 91.4303 21.8431 90.5441 23.3754C89.6579 24.8892 88.4579 26.0708 86.9441 26.92C85.4303 27.7692 83.7595 28.1938 81.9318 28.1938ZM81.9318 23.8738C83.4826 23.8738 84.7195 23.3569 85.6426 22.3231C86.5841 21.2892 87.0549 19.9231 87.0549 18.2246C87.0549 16.5077 86.5841 15.1415 85.6426 14.1262C84.7195 13.0923 83.4826 12.5754 81.9318 12.5754C80.3626 12.5754 79.1072 13.0831 78.1656 14.0985C77.2426 15.1138 76.781 16.4892 76.781 18.2246C76.781 19.9415 77.2426 21.3169 78.1656 22.3508C79.1072 23.3662 80.3626 23.8738 81.9318 23.8738ZM107.191 28L103.148 20.6615H102.012V28H97.277V8.56H105.225C106.757 8.56 108.059 8.82769 109.129 9.36308C110.219 9.89846 111.031 10.6369 111.566 11.5785C112.102 12.5015 112.369 13.5354 112.369 14.68C112.369 15.9723 112 17.1262 111.262 18.1415C110.542 19.1569 109.471 19.8769 108.049 20.3015L112.535 28H107.191ZM102.012 17.3108H104.948C105.815 17.3108 106.462 17.0985 106.886 16.6738C107.329 16.2492 107.551 15.6492 107.551 14.8738C107.551 14.1354 107.329 13.5538 106.886 13.1292C106.462 12.7046 105.815 12.4923 104.948 12.4923H102.012V17.3108Z" fill="#445665"/>
<path d="M161.528 24.3446H167.732V28H156.793V8.56H161.528V24.3446ZM177.495 8.56V28H172.759V8.56H177.495ZM201.087 28H196.351L188.431 16.0092V28H183.696V8.56H188.431L196.351 20.6062V8.56H201.087V28ZM218.559 28L212.024 19.4154V28H207.288V8.56H212.024V17.0892L218.504 8.56H224.07L216.538 18.0862L224.347 28H218.559Z" fill="#445665"/>
<path d="M148.151 16.9143C148.151 25.7413 134.305 33.2308 134.305 33.2308C134.305 33.2308 120.459 25.7413 120.459 16.9143C120.459 14.9989 121.216 13.162 122.565 11.8076C123.913 10.4532 125.742 9.69232 127.648 9.69232C130.656 9.69232 133.232 11.3387 134.305 13.972C135.378 11.3387 137.954 9.69232 140.962 9.69232C142.869 9.69232 144.697 10.4532 146.046 11.8076C147.394 13.162 148.151 14.9989 148.151 16.9143Z" fill="#BED8ED" fill-opacity="0.36"/>
<path d="M139.472 8.14712C141.458 6.15327 144.362 6.11173 145.97 7.72619C147.582 9.34343 147.539 12.2677 145.55 14.2616L142.196 17.6304C142.007 17.8265 141.902 18.0889 141.905 18.3612C141.908 18.6335 142.017 18.8938 142.21 19.0861C142.403 19.2784 142.664 19.3872 142.936 19.3892C143.208 19.3912 143.47 19.2861 143.666 19.0967L147.022 15.7279C149.668 13.0708 150.001 8.82973 147.442 6.25989C144.88 3.68866 140.648 4.02373 137.999 6.68081L131.289 13.4197C128.643 16.0768 128.311 20.3179 130.869 22.8864C130.965 22.9857 131.079 23.0651 131.206 23.1198C131.332 23.1745 131.469 23.2034 131.607 23.205C131.744 23.2065 131.881 23.1805 132.009 23.1286C132.137 23.0767 132.253 22.9999 132.35 22.9026C132.448 22.8053 132.526 22.6896 132.578 22.5621C132.631 22.4346 132.657 22.2979 132.656 22.1601C132.655 22.0222 132.627 21.8859 132.573 21.7591C132.519 21.6322 132.44 21.5175 132.341 21.4214C130.73 19.8042 130.774 16.8799 132.761 14.886L139.472 8.14712Z" fill="#C4DF9B"/>
<path d="M137.748 15.8816C137.553 15.6864 137.289 15.5766 137.013 15.5762C136.738 15.5758 136.473 15.6849 136.278 15.8795C136.083 16.0742 135.973 16.3384 135.973 16.614C135.972 16.8896 136.081 17.1541 136.276 17.3493C137.888 18.9665 137.845 21.8895 135.857 23.8847L129.145 30.6222C127.158 32.6161 124.253 32.6576 122.646 31.0431C121.034 29.4259 121.079 26.5016 123.065 24.5078L126.422 21.139C126.518 21.0424 126.594 20.9277 126.646 20.8016C126.698 20.6754 126.725 20.5403 126.725 20.4039C126.724 20.2675 126.697 20.1324 126.645 20.0065C126.592 19.8806 126.516 19.7662 126.419 19.6699C126.322 19.5736 126.208 19.4973 126.082 19.4454C125.955 19.3934 125.82 19.3668 125.684 19.367C125.547 19.3673 125.412 19.3944 125.286 19.4469C125.161 19.4993 125.046 19.576 124.95 19.6727L121.594 23.0415C118.948 25.6999 118.615 29.9396 121.174 32.5095C123.736 35.0821 127.968 34.7456 130.617 32.0885L137.328 25.3496C139.974 22.6939 140.307 18.4501 137.748 15.8816Z" fill="#83D2E2"/>
</svg>
